<svg xmlns="http://www.w3.org/2000/svg" viewBox="0 0 100 100" width="100" height="100">
  <circle cx="50" cy="50" r="48" fill="#FBF3DE"/>
  <g fill="none" stroke="#C9962E" stroke-width="2.6" stroke-linecap="round" stroke-linejoin="round">
    <!-- top ring -->
    <line x1="50" y1="16" x2="50" y2="22"/>
    <path d="M44 16 h12 v4 h-12 z" fill="#C9962E" stroke="none"/>
    <!-- roof -->
    <path d="M38 30 L50 22 L62 30 Z"/>
    <path d="M40 30 h20 v4 h-20 z"/>
    <!-- body -->
    <path d="M40 34 h20 v34 h-20 z"/>
    <!-- vertical struts -->
    <line x1="46" y1="34" x2="46" y2="68"/>
    <line x1="54" y1="34" x2="54" y2="68"/>
    <!-- horizontal bands -->
    <line x1="40" y1="42" x2="60" y2="42"/>
    <line x1="40" y1="60" x2="60" y2="60"/>
    <!-- flame -->
    <path d="M50 46 c3 3 3 7 0 9 c-3 -2 -3 -6 0 -9 z" fill="#C9962E" stroke="none"/>
    <!-- base -->
    <path d="M36 68 h28 v4 h-28 z"/>
    <path d="M40 72 L44 80 h12 l4 -8 z"/>
    <line x1="44" y1="80" x2="44" y2="84"/>
    <line x1="56" y1="80" x2="56" y2="84"/>
  </g>
</svg>
