<svg xmlns="http://www.w3.org/2000/svg" viewBox="0 0 100 100" width="100" height="100">
  <circle cx="50" cy="50" r="48" fill="#FBEAE3"/>
  <g fill="none" stroke="#C15B3F" stroke-width="2.6" stroke-linecap="round" stroke-linejoin="round">
    <!-- shield -->
    <path d="M50 20 L70 28 V50 C70 64 60 74 50 78 C40 74 30 64 30 50 V28 Z"/>
    <!-- two people -->
    <circle cx="44" cy="46" r="4.5" fill="#C15B3F" stroke="none"/>
    <circle cx="56" cy="46" r="4.5" fill="#C15B3F" stroke="none"/>
    <path d="M37 62 c0 -7 5.5 -11.5 7 -11.5 c1.5 0 7 4.5 7 11.5" />
    <path d="M49 62 c0 -7 5.5 -11.5 7 -11.5 c1.5 0 7 4.5 7 11.5" />
    <!-- small heart above -->
    <path d="M50 32 c-1.6 -2 -4.6 -2 -5.6 0.2 c-1 2.2 0.4 4 5.6 8 c5.2 -4 6.6 -5.8 5.6 -8 c-1 -2.2 -4 -2.2 -5.6 -0.2 z" fill="#C15B3F" stroke="none"/>
  </g>
</svg>
